<svg aria-hidden="true" xmlns="http://www.w3.org/2000/svg" viewBox="0 0 24 24" height="24" width="24"><path d="M12 22.25q-1.925 0-3.6-.738-1.675-.737-2.912-1.974Q4.25 18.3 3.525 16.625q-.725-1.675-.725-3.6 0-1.9.725-3.575.725-1.675 1.963-2.925 1.237-1.25 2.925-1.975Q10.1 3.825 12 3.825h.15l-.7-.7q-.3-.325-.313-.788-.012-.462.313-.812.35-.35.813-.35.462 0 .812.325l2.65 2.675q.325.325.325.8 0 .475-.325.8l-2.65 2.65q-.325.325-.8.325-.475 0-.825-.35-.3-.325-.3-.8 0-.475.3-.8l.7-.7H12q-2.9 0-4.912 2.012-2.013 2.013-2.013 4.913 0 2.9 2.013 4.925Q9.1 19.975 12 19.975q2.6 0 4.55-1.687 1.95-1.688 2.325-4.238.05-.45.4-.738.35-.287.8-.287.45 0 .788.275.337.275.287.7-.375 3.55-2.987 5.9Q15.55 22.25 12 22.25Z"/></svg>
