<svg aria-hidden="true" xmlns="http://www.w3.org/2000/svg" viewBox="0 96 960 960" height="24" width="24"><path d="M418 716q24 24 61.435 23.5T536 712l171.826-250.174q12.392-19.087-1.652-32.283-14.044-13.195-33.131-.804L424 600q-27 19.13-28.5 55.565T418 716ZM204 915.218q-25.522 0-49.609-12.826-24.087-12.826-36.783-34.783-26.565-46.696-41.696-100.022Q60.782 714.261 60.782 656q0-86.391 32.913-162.566 32.913-76.174 89.956-133.217 57.044-57.044 133.436-90.24Q393.478 236.782 480 236.782q43.87 0 85.87 8.934 42 8.935 81 26.239 28.913 12.696 33.826 38.762 4.913 26.065-13.044 48.153-10.261 12.391-28.217 15.521-17.957 3.131-32.914-3.565-31.434-14.869-62.043-21.456-30.608-6.587-64.478-6.587-129.043 0-221.13 91.522Q166.783 525.826 166.783 656q0 42 10.935 79.891 10.934 37.891 30.804 73.326h542.956q23-38 32.37-75.608Q793.217 696 793.217 652q0-31.609-6.804-62.565-6.804-30.956-20.543-60.826-7.566-16.957-3.718-35.196 3.848-18.239 17.674-29.5 21.653-18.522 47.153-10.261t36.761 35.609q16.305 38 25.457 78.217 9.152 40.218 10.021 82.522 0 58.696-14.348 113.522-14.347 54.826-42.478 104.087-14.391 23.087-37.631 35.348-23.239 12.261-48.761 12.261H204ZM480 576Z"/></svg>
