<svg aria-hidden="true" xmlns="http://www.w3.org/2000/svg" viewBox="0 0 24 24" height="24" width="24"><path d="M20.74 6H3.21C2.55 6 2 6.57 2 7.28v9.44c0 .71.55 1.28 1.21 1.28h4.79c.52 0 .98-.34 1.14-.83l1.13-3.37c.16-.49.62-.83 1.14-.83h1.1c.52 0 .98.34 1.14.83l1.13 3.37c.16.49.62.83 1.14.83h4.79c.66 0 1.21-.57 1.21-1.28V7.28C21.95 6.57 21.4 6 20.74 6zM7.5 14.62c-1.17 0-2.12-.95-2.12-2.12s.95-2.12 2.12-2.12 2.12.95 2.12 2.12-.95 2.12-2.12 2.12zm9 0c-1.17 0-2.12-.95-2.12-2.12s.95-2.12 2.12-2.12 2.12.95 2.12 2.12-.95 2.12-2.12 2.12z"/></svg>
